HIERARCHY
ROOT hip
{
  OFFSET 0 0 0
  CHANNELS 6 Xposition Yposition Zposition Zrotation Yrotation Xrotation
  JOINT abdomen
  {
    OFFSET 0 20.6881 -0.73152
    CHANNELS 3 Zrotation Xrotation Yrotation
    JOINT chest
    {
      OFFSET 0 11.7043 -0.48768
      CHANNELS 3 Zrotation Xrotation Yrotation
      JOINT neck
      {
        OFFSET 0 22.1894 -2.19456
        CHANNELS 3 Zrotation Xrotation Yrotation
        JOINT head
        {
          OFFSET -0.24384 7.07133 1.2192
          CHANNELS 3 Zrotation Xrotation Yrotation
          JOINT leftEye
          {
            OFFSET 4.14528 8.04674 8.04672
            CHANNELS 3 Zrotation Xrotation Yrotation
            End Site
            {
              OFFSET 1 0 0
            }
          }
          JOINT rightEye
          {
            OFFSET -3.6576 8.04674 8.04672
            CHANNELS 3 Zrotation Xrotation Yrotation
            End Site
            {
              OFFSET 1 0 0
            }
          }
        }
      }
      JOINT rCollar
      {
        OFFSET -2.68224 19.2634 -4.8768
        CHANNELS 3 Zrotation Xrotation Yrotation
        JOINT rShldr
        {
          OFFSET -8.77824 -1.95073 1.46304
          CHANNELS 3 Zrotation Xrotation Yrotation
          JOINT rForeArm
          {
            OFFSET -28.1742 -1.7115 0.48768
            CHANNELS 3 Zrotation Xrotation Yrotation
            JOINT rHand
            {
              OFFSET -22.5879 0.773209 7.07136
              CHANNELS 3 Zrotation Xrotation Yrotation
              JOINT rThumb1
              {
                OFFSET -1.2192 -0.487915 3.41376
                CHANNELS 3 Zrotation Xrotation Yrotation
                JOINT rThumb2
                {
                  OFFSET -3.37035 -0.52449 3.41376
                  CHANNELS 3 Zrotation Xrotation Yrotation
                  End Site
                  {
                    OFFSET -1.78271 -1.18214 1.43049
                  }
                }
              }
              JOINT rIndex1
              {
                OFFSET -7.75947 0.938293 5.60832
                CHANNELS 3 Zrotation Xrotation Yrotation
                JOINT rIndex2
                {
                  OFFSET -2.54057 -0.884171 1.56538
                  CHANNELS 3 Zrotation Xrotation Yrotation
                  End Site
                  {
                    OFFSET -1.62519 -0.234802 1.16502
                  }
                }
              }
              JOINT rMid1
              {
                OFFSET -8.24714 1.18213 3.41376
                CHANNELS 3 Zrotation Xrotation Yrotation
                JOINT rMid2
                {
                  OFFSET -3.10165 -0.590103 1.0647
                  CHANNELS 3 Zrotation Xrotation Yrotation
                  End Site
                  {
                    OFFSET -2.48547 -0.328903 0.83742
                  }
                }
              }
              JOINT rRing1
              {
                OFFSET -8.82822 0.546677 1.51678
                CHANNELS 3 Zrotation Xrotation Yrotation
                JOINT rRing2
                {
                  OFFSET -2.60934 -0.819778 -0.0198488
                  CHANNELS 3 Zrotation Xrotation Yrotation
                  End Site
                  {
                    OFFSET -2.33842 -0.294052 0.168128
                  }
                }
              }
              JOINT rPinky1
              {
                OFFSET -8.27202 -0.0477905 -0.4584
                CHANNELS 3 Zrotation Xrotation Yrotation
                JOINT rPinky2
                {
                  OFFSET -1.82734 -0.647385 -0.700984
                  CHANNELS 3 Zrotation Xrotation Yrotation
                  End Site
                  {
                    OFFSET -1.69225 -0.51767 -0.607171
                  }
                }
              }
            }
          }
        }
      }
      JOINT lCollar
      {
        OFFSET 2.68224 19.2634 -4.8768
        CHANNELS 3 Zrotation Xrotation Yrotation
        JOINT lShldr
        {
          OFFSET 8.77824 -1.95073 1.46304
          CHANNELS 3 Zrotation Xrotation Yrotation
          JOINT lForeArm
          {
            OFFSET 28.1742 -1.7115 0.48768
            CHANNELS 3 Zrotation Xrotation Yrotation
            JOINT lHand
            {
              OFFSET 22.5879 0.773209 7.07136
              CHANNELS 3 Zrotation Xrotation Yrotation
              JOINT lThumb1
              {
                OFFSET 1.2192 -0.487915 3.41376
                CHANNELS 3 Zrotation Xrotation Yrotation
                JOINT lThumb2
                {
                  OFFSET 3.37035 -0.52449 3.41376
                  CHANNELS 3 Zrotation Xrotation Yrotation
                  End Site
                  {
                    OFFSET 1.78271 -1.18214 1.43049
                  }
                }
              }
              JOINT lIndex1
              {
                OFFSET 7.75947 0.938293 5.60832
                CHANNELS 3 Zrotation Xrotation Yrotation
                JOINT lIndex2
                {
                  OFFSET 2.54057 -0.884171 1.56538
                  CHANNELS 3 Zrotation Xrotation Yrotation
                  End Site
                  {
                    OFFSET 1.62519 -0.234802 1.16502
                  }
                }
              }
              JOINT lMid1
              {
                OFFSET 8.24714 1.18213 3.41376
                CHANNELS 3 Zrotation Xrotation Yrotation
                JOINT lMid2
                {
                  OFFSET 3.10165 -0.590103 1.0647
                  CHANNELS 3 Zrotation Xrotation Yrotation
                  End Site
                  {
                    OFFSET 2.48547 -0.328903 0.83742
                  }
                }
              }
              JOINT lRing1
              {
                OFFSET 8.82822 0.546677 1.51678
                CHANNELS 3 Zrotation Xrotation Yrotation
                JOINT lRing2
                {
                  OFFSET 2.60934 -0.819778 -0.0198488
                  CHANNELS 3 Zrotation Xrotation Yrotation
                  End Site
                  {
                    OFFSET 2.33842 -0.294052 0.168128
                  }
                }
              }
              JOINT lPinky1
              {
                OFFSET 8.27202 -0.0477905 -0.4584
                CHANNELS 3 Zrotation Xrotation Yrotation
                JOINT lPinky2
                {
                  OFFSET 1.82734 -0.647385 -0.700984
                  CHANNELS 3 Zrotation Xrotation Yrotation
                  End Site
                  {
                    OFFSET 1.69225 -0.51767 -0.607171
                  }
                }
              }
            }
          }
        }
      }
    }
  }
  JOINT rButtock
  {
    OFFSET -8.77824 4.35084 1.2192
    CHANNELS 3 Zrotation Xrotation Yrotation
    JOINT rThigh
    {
      OFFSET 0 -1.70687 -2.19456
      CHANNELS 3 Zrotation Xrotation Yrotation
      JOINT rShin
      {
        OFFSET 0 -36.8199 0.73152
        CHANNELS 3 Zrotation Xrotation Yrotation
        JOINT rFoot
        {
          OFFSET 0.73152 -45.1104 -5.12064
          CHANNELS 3 Zrotation Xrotation Yrotation
          End Site
          {
            OFFSET -1.1221 -3.69964 12.103
          }
        }
      }
    }
  }
  JOINT lButtock
  {
    OFFSET 8.77824 4.35084 1.2192
    CHANNELS 3 Zrotation Xrotation Yrotation
    JOINT lThigh
    {
      OFFSET 0 -1.70687 -2.19456
      CHANNELS 3 Zrotation Xrotation Yrotation
      JOINT lShin
      {
        OFFSET 0 -36.8199 0.73152
        CHANNELS 3 Zrotation Xrotation Yrotation
        JOINT lFoot
        {
          OFFSET -0.73152 -45.1104 -5.12064
          CHANNELS 3 Zrotation Xrotation Yrotation
          End Site
          {
            OFFSET 1.1221 -3.69964 12.103
          }
        }
      }
    }
  }
}
MOTION
Frames:	6
Frame Time:	0.03333
5.1942 43.732 -26.1497 -76.928043 85.13881 -70.198605 -1.663594 14.412663 -0.546125 -1.382861 -14.387273 21.178189 -10.125745 28.207757 -94.202452 30.791991 17.015897 131.015046 0.001789 -0.0 -0.00013 -0.003395 0.0 -0.00363 0.147474 -0.896235 -0.197953 66.322918 0.247062 20.129726 -179.647347 -41.648626 28.452691 159.970541 -31.265445 141.133366 102.400438 -51.166362 47.160408 -87.466491 37.080126 45.249625 -113.305671 31.238241 95.873884 13.440638 -12.656845 -7.897951 0.794544 -2.340903 -0.429219 15.257633 -35.743066 -1.006858 -145.112936 -0.502811 -178.970678 11.735515 23.225594 -6.338856 25.213272 78.31522 11.259956 -147.390475 8.443507 -141.98475 154.322189 3.566562 -160.262201 -150.65591 34.584781 -178.101969 51.800059 -35.091201 -90.283046 -12.810104 -65.431834 -0.409655 166.736848 -4.412166 -89.780277 -66.936832 -65.913571 -51.28007 154.025169 -22.130095 -121.88661 87.922442 56.465831 -69.874203 2.737796 7.607416 -1.639446 138.966177 43.942888 -127.070915 -0.002106 0.395444 -0.123242 -9.569541 8.96012 -1.120548 142.918385 5.275924 139.796025 12.567601 -27.63108 14.895336 0.006166 0.000951 0.005103 -77.428643 -36.890539 71.334817 114.429128 -44.379405 40.160846 26.398696 75.713332 -133.047523 -0.002707 0.00095 -0.001798 99.529065 -50.965552 13.713404 -103.775155 28.449558 111.816258 -100.417064 6.974399 -10.047326
5.145700000000001 43.276199999999996 -26.226899999999997 -76.981261 85.130699 -70.182686 -1.063203 14.454681 -14.141805 1.575435 -14.491209 35.165715 8.083123 18.123712 55.430533 -19.949302 -9.253665 -19.215876 -0.002357 -0.0 0.003008 -0.002357 -0.0 0.003008 -149.412566 24.016323 154.417308 -56.312788 29.220002 15.585715 -165.397335 -8.998313 -64.97361 -4.291382 26.407135 2.014943 -131.697834 24.962063 77.93033 178.055364 -28.492765 78.984771 -10.868716 15.373363 7.078624 -160.968119 -10.183306 110.220164 24.826038 -62.487008 1.991598 -170.532161 -26.296778 144.170608 -0.94938 -16.910572 -5.503591 -155.018641 -24.744543 175.000887 -7.556403 -16.447971 -7.119379 -12.858811 -30.330625 -14.341912 156.973378 -14.397913 -164.023177 29.930534 6.634602 14.635561 3.128185 -58.690988 151.719638 171.270331 0.629071 -142.131249 -65.17681 -46.530387 -21.419871 13.132797 -28.849338 26.094423 61.182801 42.764048 -49.687877 143.462588 20.522865 -106.559243 -2.804619 -8.49781 1.403527 166.85436 -15.785403 -144.168402 -0.002529 0.587332 -0.184894 -9.993483 3.874823 -0.431432 -27.13478 80.268099 -10.028782 -0.733997 -1.700338 1.474082 179.851628 75.750313 0.116827 130.380818 1.520043 -87.384979 -111.35313 -11.858481 -51.244592 38.148959 8.232617 131.170061 -179.976559 75.748592 -0.017022 -141.431531 -17.603598 61.731164 104.768944 12.337347 -56.20849 25.268586 -51.782281 -38.881379
5.0752 42.866 -26.2942 -77.035848 85.082712 -70.230463 -1.139038 10.001276 -166.784669 4.210871 9.247045 -172.524706 5.643023 16.376489 40.013348 -13.919471 -14.515443 -3.498248 -0.005199 -0.0 0.004052 0.000503 0.0 0.004503 -158.645646 -32.627227 167.392361 147.81348 14.381339 -148.362451 68.795226 49.37422 72.568099 -117.149297 77.103158 99.495111 -6.886694 6.630732 1.446742 12.391598 -14.329431 -4.475685 -111.364414 32.464254 94.242088 44.462475 -53.039089 4.608652 -178.149285 -54.930536 143.069914 -33.408453 54.171926 28.050698 -145.053471 6.372991 178.862794 -153.764526 74.330153 168.17507 -139.196635 -4.46108 -136.367264 -165.16923 62.453775 -146.004278 -2.577391 -67.211617 15.047225 86.627231 -52.961704 126.544804 -6.960696 -51.449627 143.368674 169.040442 7.395694 -140.717027 11.182659 10.533213 -2.718095 -5.560138 -4.547986 -2.894511 163.243757 -38.462731 -122.604894 -178.967291 -49.900548 -111.615596 173.577207 -45.407724 -144.797475 172.257175 -30.926234 -143.732318 5.2e-05 0.100637 -0.030814 -11.350605 -20.485043 2.480552 148.934844 24.901036 145.049164 146.28493 7.382029 140.656524 -179.98678 75.750538 -0.011312 130.213221 0.791113 -89.145563 -104.83123 -3.899949 174.874185 -64.765486 72.864552 -35.109241 0.001864 0.000334 -7.3e-05 102.209487 -50.448556 7.25191 -104.073283 18.823261 100.718858 -179.97194 -8.804012 9.138908
5.0075 42.4819 -26.3731 -76.286299 85.060029 -69.40899 -0.912089 14.760847 -18.248201 2.646758 -14.630477 39.545097 -7.853843 31.944062 -120.509586 25.790099 28.402437 155.657855 0.000117 0.0 0.00103 0.000421 0.0 0.002886 4.274592 -49.934896 -9.760214 69.510818 31.171177 -21.749309 63.291469 59.950952 65.523112 -44.946357 73.275906 30.874438 -179.56832 -17.062257 89.331738 -49.870984 -11.349676 6.044749 -147.282119 -9.705138 119.576603 126.248747 -70.095114 70.958163 -2.578848 7.185406 1.537252 -9.211315 29.799487 7.438314 -0.026228 -2.010176 -0.631649 -2.164604 57.208714 14.839685 13.271725 45.462159 10.93542 25.593811 71.402078 6.977536 152.386325 13.013313 -157.864885 -153.169208 31.635112 -170.305038 -167.241813 17.241997 -34.768764 162.266834 24.31138 -135.648472 -140.715287 -43.730306 -72.964583 165.865878 -8.435138 -110.771613 110.64948 32.895284 -93.634628 10.553137 26.262158 -1.003173 178.21078 -55.035754 -143.039187 173.716711 -34.725037 -143.476429 145.101783 -1.325614 178.713366 -11.85667 24.576258 6.188917 -168.06281 87.012798 126.689056 7.45495 -19.054022 8.744424 -179.990686 75.750941 -0.008921 130.116034 0.182734 -89.502779 -103.580349 -4.961998 158.076372 -36.435176 23.158079 -62.409208 179.997622 75.750072 0.002608 -139.317421 -20.518644 -151.052715 -117.100702 -40.445689 141.754506 -165.792006 -77.43033 110.61343
4.9368 42.122 -26.4198 -76.225913 85.080144 -69.272251 0.838125 12.463815 -94.7772 12.674532 -2.694959 115.83572 -10.457731 23.313116 -66.400753 30.853915 3.398247 106.866365 -0.00199 -0.0 0.001193 -0.0015 0.0 -0.001801 -0.290395 1.710016 0.384094 -108.959265 -5.233517 155.630427 14.687674 29.807019 -154.320594 164.632343 -21.053856 144.359908 139.369636 -44.24435 72.149574 -157.039012 4.240195 103.465003 -143.664475 -3.387655 117.83456 -13.721698 36.126394 3.409265 1.789606 -5.350008 -0.931757 -150.634655 27.247325 136.342066 -145.077075 -2.642343 -178.297004 -153.595459 -15.310193 -177.074108 -148.743294 24.200253 -144.890186 -23.840178 -38.688332 -25.038441 142.242116 40.716934 -146.610682 -88.651937 -62.75915 -117.020145 -47.027956 75.039124 -169.64556 165.465725 18.113596 -137.958412 -3.093081 -3.074891 0.393721 148.608815 -60.12268 -122.933657 1.110638 1.779813 -0.638578 39.290093 43.514048 -29.078293 137.05748 40.400756 -125.638583 14.629869 37.963881 -11.959551 0.001568 -0.227766 0.070867 -11.45018 -23.151647 2.788377 143.106374 5.827726 139.970256 60.038269 -52.559991 60.240181 0.000186 8.2e-05 0.00022 -80.097363 -36.7303 38.934085 100.765513 -7.910773 -92.22573 -65.867201 -18.684097 -1.965161 0.000186 8.2e-05 0.00022 105.575647 -52.157097 -151.297967 111.781101 -27.444993 -153.07104 179.252383 -14.28928 -77.185244
4.8681 41.7975 -26.4516 -77.24923 84.997251 -70.215767 -1.061918 10.445525 -169.908508 3.573035 9.913295 -169.476164 11.275136 24.661318 96.72575 -28.025333 9.850035 -56.555034 -0.004133 0.0 -0.001028 0.001093 0.0 0.002359 -151.615745 16.211704 156.949372 -49.625256 19.759556 5.986913 -171.04282 -20.735393 -65.541859 -6.834227 33.829181 2.572314 -160.390208 1.885824 88.941407 51.395238 -61.877777 40.714871 34.628979 -55.491725 -1.972983 -17.07049 38.404426 14.323976 -172.967979 -43.915417 144.947581 -169.757975 -23.909259 143.958535 -145.118617 0.13354 -179.16896 12.062736 35.576184 -4.971868 4.619431 13.429872 4.176166 -156.504389 44.124401 -149.208535 158.734062 -34.033037 -167.65241 43.052939 -33.927534 35.368866 5.46245 -26.495354 149.840845 173.826431 -5.725035 -143.155936 -68.492672 -47.450409 -23.577472 83.415115 39.474143 -50.09777 143.439705 -3.007198 -117.716161 3.29072 23.305064 3.668827 150.274984 20.398816 -136.641094 162.151936 -1.692113 -142.642099 145.100297 4.215627 -179.54678 -11.601162 52.760451 2.695053 27.811173 -39.753408 26.829976 136.326629 -15.018727 134.639347 179.99021 75.749485 0.007182 129.913528 -0.929868 -93.589956 -103.302881 -18.922807 54.538928 70.767515 2.718572 21.266527 0.000511 -0.000898 0.00078 106.114748 -52.174285 -170.278198 111.501937 -8.490686 -176.754694 32.995498 -46.719856 96.182957
